<?xml version="1.0" encoding="UTF-8" standalone="no"?>
<svg
   xmlns:dc="http://purl.org/dc/elements/1.1/"
   xmlns:cc="http://creativecommons.org/ns#"
   xmlns:rdf="http://www.w3.org/1999/02/22-rdf-syntax-ns#"
   xmlns:svg="http://www.w3.org/2000/svg"
   xmlns="http://www.w3.org/2000/svg"
   xmlns:xlink="http://www.w3.org/1999/xlink"
   width="65.116501mm"
   height="90.19136mm"
   viewBox="0 0 65.116501 90.19136"
   version="1.1"
   id="svg8">
  <defs
     id="defs2">
    <linearGradient
       id="linearGradient1917">
      <stop
         style="stop-color:#00aad4;stop-opacity:1;"
         offset="0"
         id="stop1913" />
      <stop
         style="stop-color:#ecf9fc;stop-opacity:0"
         offset="1"
         id="stop1915" />
    </linearGradient>
    <linearGradient
       id="linearGradient1873">
      <stop
         style="stop-color:#858585;stop-opacity:1;"
         offset="0"
         id="stop1869" />
      <stop
         style="stop-color:#858585;stop-opacity:0;"
         offset="1"
         id="stop1871" />
    </linearGradient>
    <linearGradient
       id="linearGradient1855">
      <stop
         style="stop-color:#858585;stop-opacity:1"
         offset="0"
         id="stop1851" />
      <stop
         style="stop-color:#605d5d;stop-opacity:0"
         offset="1"
         id="stop1853" />
    </linearGradient>
    <clipPath
       clipPathUnits="userSpaceOnUse"
       id="clipPath1750">
      <rect
         style="opacity:1;fill:#06cbfb;fill-opacity:0.02843604;stroke:#000000;stroke-width:0.46284553;stroke-linejoin:round;stroke-miterlimit:4;stroke-dasharray:none;stroke-opacity:1"
         id="rect1752"
         width="193.31557"
         height="229.55766"
         x="70.745155"
         y="288.03543" />
    </clipPath>
    <clipPath
       clipPathUnits="userSpaceOnUse"
       id="clipPath1754">
      <rect
         style="opacity:1;fill:#06cbfb;fill-opacity:0.02843604;stroke:#000000;stroke-width:0.75590551;stroke-linejoin:round;stroke-miterlimit:4;stroke-dasharray:none;stroke-opacity:1"
         id="rect1756"
         width="312.10995"
         height="379.23978"
         x="290.31458"
         y="133.00906" />
    </clipPath>
    <clipPath
       clipPathUnits="userSpaceOnUse"
       id="clipPath1758">
      <rect
         style="opacity:1;fill:#06cbfb;fill-opacity:0.02843604;stroke:#000000;stroke-width:0.75590551;stroke-linejoin:round;stroke-miterlimit:4;stroke-dasharray:none;stroke-opacity:1"
         id="rect1760"
         width="312.10995"
         height="379.23978"
         x="290.31458"
         y="133.00906" />
    </clipPath>
    <clipPath
       clipPathUnits="userSpaceOnUse"
       id="clipPath1762">
      <rect
         style="opacity:1;fill:#06cbfb;fill-opacity:0.02843604;stroke:#000000;stroke-width:0.2;stroke-linejoin:round;stroke-miterlimit:4;stroke-dasharray:none;stroke-opacity:1"
         id="rect1764"
         width="82.579094"
         height="100.34052"
         x="76.812401"
         y="35.191982" />
    </clipPath>
    <linearGradient
       xlink:href="#linearGradient1855"
       id="linearGradient1857"
       x1="442.01047"
       y1="497.42795"
       x2="442.01047"
       y2="439.88812"
       gradientUnits="userSpaceOnUse" />
    <radialGradient
       xlink:href="#linearGradient1917"
       id="radialGradient1919"
       cx="111.76743"
       cy="91.183868"
       fx="111.76743"
       fy="91.183868"
       r="26.626364"
       gradientTransform="matrix(0.89423736,0.44759305,-0.5197883,1.0384749,62.69175,-53.566494)"
       gradientUnits="userSpaceOnUse" />
    <radialGradient
       xlink:href="#linearGradient1873"
       id="radialGradient1921"
       cx="117.29375"
       cy="78.37146"
       fx="117.29375"
       fy="78.37146"
       r="26.626364"
       gradientTransform="matrix(1,0,0,1.0384746,0,-2.7076508)"
       gradientUnits="userSpaceOnUse" />
    <filter
       style="color-interpolation-filters:sRGB"
       id="filter2121"
       x="-0.0073388368"
       width="1.0146776"
       y="-0.0070663188"
       height="1.0141326">
      <feGaussianBlur
         stdDeviation="0.16246116"
         id="feGaussianBlur2123" />
    </filter>
  </defs>
  <metadata
     id="metadata5">
    <rdf:RDF>
      <cc:Work
         rdf:about="">
        <dc:format>image/svg+xml</dc:format>
        <dc:type
           rdf:resource="http://purl.org/dc/dcmitype/StillImage" />
        <dc:title></dc:title>
      </cc:Work>
    </rdf:RDF>
  </metadata>
  <g
     id="layer1"
     transform="translate(-85.041747,-42.1943)">
    <flowRoot
       xml:space="preserve"
       id="flowRoot1179"
       style="font-style:normal;font-weight:normal;font-size:40px;line-height:1.25;font-family:sans-serif;letter-spacing:0px;word-spacing:0px;fill:#000000;fill-opacity:1;stroke:none"
       transform="scale(0.26458333)"><flowRegion
         id="flowRegion1181"><rect
           id="rect1183"
           width="66.665581"
           height="45.291885"
           x="153.17818"
           y="331.18393" /></flowRegion><flowPara
         id="flowPara1185">kjlkjlk</flowPara></flowRoot>    <text
       xml:space="preserve"
       style="font-style:normal;font-weight:normal;font-size:10.58333302px;line-height:1.25;font-family:sans-serif;letter-spacing:0px;word-spacing:0px;fill:#000000;fill-opacity:1;stroke:none;stroke-width:0.26458332"
       x="50.357536"
       y="93.819458"
       id="text1189"><tspan
         id="tspan1187"
         x="50.357536"
         y="103.18323"
         style="stroke-width:0.26458332" /></text>
    <path
       style="fill:#00aad4;fill-opacity:1;stroke:none;stroke-width:0.37795275;stroke-linejoin:round;stroke-miterlimit:4;stroke-dasharray:none;stroke-opacity:1"
       d=""
       id="path1133"
       transform="scale(0.26458333)" />
    <path
       style="fill:#00aad4;fill-opacity:1;stroke:none;stroke-width:0.37795275;stroke-linejoin:round;stroke-miterlimit:4;stroke-dasharray:none;stroke-opacity:1"
       d=""
       id="path1135"
       transform="scale(0.26458333)" />
    <path
       style="fill:#00ccff;fill-opacity:1;stroke:none;stroke-width:0.37795275;stroke-linejoin:round;stroke-miterlimit:4;stroke-dasharray:none;stroke-opacity:1"
       d=""
       id="path1143"
       transform="scale(0.26458333)" />
    <path
       style="fill:#00aad4;fill-opacity:1;stroke:none;stroke-width:0.02362205;stroke-linejoin:round;stroke-miterlimit:4;stroke-dasharray:none;stroke-opacity:1"
       d=""
       id="path96"
       transform="scale(0.26458333)" />
    <path
       style="fill:#00ccff;fill-opacity:1;stroke:none;stroke-width:0.26725295;stroke-linejoin:round;stroke-miterlimit:4;stroke-dasharray:none;stroke-opacity:1"
       d=""
       id="path966"
       transform="scale(0.26458333)" />
    <path
       style="fill:#00ccff;fill-opacity:1;stroke:none;stroke-width:0.26725295;stroke-linejoin:round;stroke-miterlimit:4;stroke-dasharray:none;stroke-opacity:1"
       d=""
       id="path968"
       transform="scale(0.26458333)" />
    <path
       style="fill:#00ccff;fill-opacity:1;stroke:none;stroke-width:0.26725295;stroke-linejoin:round;stroke-miterlimit:4;stroke-dasharray:none;stroke-opacity:1"
       d=""
       id="path970"
       transform="scale(0.26458333)" />
    <g
       id="g922">
      <g
         id="g4608">
        <g
           id="g930">
          <g
             id="flowRoot1369"
             style="font-style:normal;font-variant:normal;font-weight:bold;font-stretch:normal;font-size:40px;line-height:1.25;font-family:sans-serif;-inkscape-font-specification:'sans-serif Bold';letter-spacing:0px;word-spacing:0px;fill:#00aad4;fill-opacity:1;stroke:none"
             clip-path="url(#clipPath1750)"
             transform="matrix(0.3802502,0,0,0.43710379,51.827684,-90.709392)"
             aria-label="010101">
            <g
               id="g4700">
              <g
                 transform="matrix(2.6298474,0,0,2.2877861,-136.2989,207.52369)"
                 style=""
                 id="g1266">
                <path
                   style="fill:#00ccff;fill-opacity:1;stroke:none;stroke-width:0.07252239;stroke-linejoin:round;stroke-miterlimit:4;stroke-dasharray:none;stroke-opacity:1"
                   d="m 101.22102,103.46159 c -0.94923,-1.89634 -2.11149,-4.434892 -2.63411,-5.753323 -2.121592,-5.352213 -2.221169,-9.131572 -0.344986,-13.093505 0.247303,-0.522225 1.002539,-2.016026 1.678305,-3.319563 1.446381,-2.790037 2.061651,-4.157453 2.566271,-5.703478 0.87479,-2.680142 1.26854,-5.971147 1.13742,-9.506651 -0.0836,-2.253472 -0.18273,-3.22292 -0.59798,-5.846504 -0.14905,-0.941731 -0.24624,-1.735024 -0.21596,-1.762873 0.1716,-0.157875 2.62943,1.461455 3.73699,2.462113 3.53898,3.197387 7.05817,7.862971 10.19357,13.514189 1.06216,1.914423 1.27869,2.244348 1.39981,2.132921 0.0714,-0.06572 0.0615,-0.09556 -0.92859,-2.803612 -1.56857,-4.290204 -3.19554,-10.667771 -3.74438,-14.677633 -0.28969,-2.116399 -0.32201,-5.793145 -0.0509,-5.789703 0.0358,4.52e-4 0.18827,0.233923 0.33884,0.518825 0.60089,1.13695 2.4522,2.486716 7.32379,5.339703 l 2.4626,1.442189 0.48991,-0.161183 c 0.35343,-0.116281 0.57192,-0.266196 0.78426,-0.53812 0.82526,-1.056797 1.35462,-2.491072 1.59089,-4.310444 0.15959,-1.228884 0.15476,-3.137706 -0.0189,-7.469421 -0.0602,-1.502379 -0.0802,-2.758552 -0.0444,-2.791511 0.12763,-0.117406 1.20948,0.773639 2.64124,2.175426 1.68725,1.651925 2.64872,2.966329 3.64236,4.97936 1.47055,2.979194 1.91348,4.994057 1.84375,8.387049 -0.0558,2.712761 -0.25296,3.827728 -1.08006,6.106267 -0.26623,0.733454 -0.3897,0.972532 -0.43545,0.843197 -0.0592,-0.167282 -0.069,-0.168531 -0.13374,-0.01691 -0.0384,0.08998 -0.0727,0.302028 -0.0762,0.471265 -0.003,0.169237 -0.0739,0.359375 -0.15655,0.422545 -0.10205,0.07801 -0.15382,0.289048 -0.16137,0.657513 -0.0217,1.060972 0.24764,1.253153 1.07417,0.766325 0.55196,-0.325096 1.80353,-1.526437 2.42397,-2.326682 1.40891,-1.817215 2.91715,-4.935265 3.74349,-7.739047 0.16227,-0.550595 0.32421,-1.000811 0.35985,-1.00048 0.10159,9.42e-4 1.06006,1.689782 1.84938,3.258466 2.40606,4.781699 3.47368,8.623757 3.38941,12.197543 -0.0813,3.450393 -0.8648,5.485998 -3.88544,10.095531 -1.5941,2.432611 -2.13899,3.388631 -2.58377,4.533276 -0.32435,0.834724 -0.33334,0.895553 -0.36777,2.48943 -0.0426,1.978538 0.0972,2.631996 0.932,4.350735 0.64469,1.327378 1.34345,2.414955 2.50469,3.898424 0.76894,0.982301 1.33031,1.618801 3.14713,3.568331 l 0.60314,0.64721 -2.68759,0.0355 c -2.99843,0.0396 -29.34086,-0.0319 -36.70345,-0.0996 l -4.73567,-0.0436 z m 31.72024,-36.63122 c -0.03,-0.07475 -0.0537,-0.0529 -0.0607,0.05584 -0.006,0.09837 0.0158,0.153734 0.0492,0.123019 0.0334,-0.03073 0.0385,-0.111215 0.011,-0.17887 z m -0.56446,-1.386299 c -0.16451,-0.359868 -0.31345,-0.616825 -0.33098,-0.571019 -0.0323,0.08455 0.51674,1.224283 0.59013,1.224964 0.0219,2.03e-4 -0.0946,-0.294066 -0.25915,-0.653945 z m -0.43676,-1.193795 c -0.10354,-0.15863 -0.10646,-0.158407 -0.0561,0.0045 0.0293,0.0943 0.0569,0.241669 0.0615,0.327389 0.008,0.140411 0.0129,0.139991 0.0561,-0.0045 0.0263,-0.088 -0.001,-0.235345 -0.0615,-0.327389 z m -0.18951,-0.335025 c 3e-4,-0.01477 -0.22807,-0.237496 -0.50748,-0.494943 l -0.50802,-0.468097 0.47913,0.494681 c 0.44521,0.459668 0.53494,0.538022 0.53637,0.468359 z m -1.06512,-0.947219 c 3.4e-4,-0.01677 -0.11928,-0.133391 -0.26582,-0.259258 l -0.26644,-0.228848 0.23371,0.25896 c 0.21845,0.242039 0.29705,0.302372 0.29855,0.229146 z m -0.58178,-0.477125 c 4e-4,-0.01936 -0.0757,-0.09364 -0.16916,-0.164988 -0.15396,-0.117571 -0.15752,-0.1143 -0.0379,0.03489 0.12559,0.156718 0.20553,0.206921 0.2071,0.130083 z m -1.36354,-0.817791 c -0.0803,-0.05056 -0.19037,-0.09231 -0.24459,-0.09281 -0.0542,-5.03e-4 -0.0329,0.04042 0.0474,0.09098 0.0803,0.05056 0.19037,0.0923 0.24458,0.09281 0.0542,5.03e-4 0.0329,-0.04042 -0.0474,-0.09098 z m -2.40742,-0.395837 c -0.267,-0.11207 -0.34277,-0.112773 -0.34501,-0.0032 -0.001,0.0513 0.12013,0.09155 0.2693,0.08934 0.24033,-0.0038 0.24895,-0.01336 0.0757,-0.08614 z m -0.65647,-0.709376 c -0.14951,-0.128161 -0.32029,-0.23347 -0.3795,-0.234019 -0.0592,-5.49e-4 0.041,0.10184 0.22267,0.227524 0.42947,0.297101 0.49925,0.299984 0.15684,0.0064 z"
                   id="use1243" />
                <path
                   style="fill:#00ccff;fill-opacity:1;stroke:none;stroke-width:0.07071067;stroke-linejoin:round;stroke-miterlimit:4;stroke-dasharray:none;stroke-opacity:1"
                   d="m 96.364637,101.21674 c -0.985119,-1.866522 -2.201024,-4.368778 -2.755699,-5.671057 -2.251718,-5.286645 -2.515551,-9.066322 -0.914045,-13.094609 0.211098,-0.530971 0.860294,-2.051384 1.442661,-3.378702 1.246479,-2.840936 1.768615,-4.230177 2.177822,-5.794511 0.709387,-2.711882 0.935245,-6.019179 0.65243,-9.553717 -0.180261,-2.252854 -0.317742,-3.21993 -0.829102,-5.832198 -0.183552,-0.937669 -0.311267,-1.728486 -0.28381,-1.757372 0.155653,-0.163747 2.558883,1.375214 3.653982,2.339917 3.499174,3.082499 7.045394,7.635268 10.271864,13.187412 1.09301,1.88086 1.31312,2.203885 1.42298,2.088313 0.0648,-0.06816 0.0541,-0.0977 -1.00621,-2.775358 -1.67971,-4.242048 -3.50836,-10.571522 -4.20854,-14.566948 -0.36956,-2.108781 -0.56502,-5.787988 -0.30779,-5.79358 0.034,-7.41e-4 0.18902,0.227872 0.34457,0.50803 0.62075,1.118015 2.43677,2.40737 7.18416,5.100716 l 2.39982,1.36149 0.45733,-0.177669 c 0.32993,-0.128173 0.53039,-0.285515 0.71956,-0.564779 0.73518,-1.085323 1.17286,-2.538624 1.31535,-4.367623 0.0963,-1.235386 0.006,-3.145885 -0.35271,-7.475982 -0.12446,-1.501818 -0.19969,-2.758534 -0.16721,-2.792719 0.11576,-0.121773 1.18157,0.734067 2.60208,2.089478 1.67399,1.597274 2.64463,2.880894 3.67708,4.862741 1.52799,2.933044 2.03832,4.935082 2.12429,8.333665 0.0687,2.717231 -0.0683,3.839844 -0.75047,6.148147 -0.21957,0.743034 -0.32594,0.986458 -0.37512,0.858523 -0.0636,-0.16547 -0.0729,-0.166394 -0.12757,-0.01247 -0.0324,0.09135 -0.0554,0.304742 -0.0511,0.474257 0.004,0.169516 -0.0539,0.362184 -0.12951,0.428171 -0.0933,0.08149 -0.1329,0.294453 -0.12354,0.663524 0.0269,1.062719 0.291,1.246105 1.05293,0.731257 0.50883,-0.343807 1.64179,-1.588024 2.19425,-2.409721 1.25455,-1.865927 2.54498,-5.037254 3.20288,-7.87128 0.1292,-0.556533 0.26257,-1.01258 0.29639,-1.013438 0.0964,-0.0024 1.08094,1.656074 1.89974,3.199957 2.49589,4.7061 3.68049,8.516269 3.76076,12.096304 0.0775,3.456425 -0.57414,5.520106 -3.23185,10.234764 -1.40257,2.488089 -1.87641,3.463193 -2.24687,4.623766 -0.27015,0.846339 -0.27594,0.907525 -0.23715,2.504085 0.0482,1.981864 0.21019,2.631288 1.0788,4.323855 0.67083,1.307167 1.38218,2.372499 2.54982,3.818689 0.77319,0.95762 1.33403,1.576013 3.14423,3.466858 l 0.60094,0.627734 -2.54692,0.12509 c -2.84151,0.13957 -27.82403,0.94608 -34.80867,1.12371 l -4.492577,0.11417 z M 124.8015,63.492916 c -0.0318,-0.07382 -0.0533,-0.05117 -0.0551,0.05791 -10e-4,0.09867 0.0219,0.153354 0.0522,0.121496 0.0303,-0.03188 0.0316,-0.112606 0.002,-0.17941 z m -0.59739,-1.368818 c -0.17213,-0.354731 -0.32488,-0.60697 -0.33945,-0.560536 -0.0268,0.08571 0.54488,1.208237 0.61451,1.206472 0.0208,-5.27e-4 -0.10292,-0.291195 -0.27506,-0.645936 z m -0.46767,-1.180385 c -0.10529,-0.155332 -0.10806,-0.155012 -0.053,0.0063 0.032,0.09342 0.0648,0.240004 0.073,0.325655 0.0136,0.140291 0.0185,0.139694 0.0529,-0.0063 0.021,-0.08896 -0.012,-0.235522 -0.073,-0.325654 z m -0.19473,-0.329031 c -3.7e-4,-0.01479 -0.2269,-0.230122 -0.5034,-0.478504 l -0.50271,-0.451613 0.4765,0.479186 c 0.44278,0.44527 0.53138,0.520709 0.52961,0.450931 z m -1.05246,-0.912627 c -4.2e-4,-0.01679 -0.11908,-0.129543 -0.26368,-0.250647 l -0.26291,-0.220187 0.23322,0.25142 c 0.21799,0.23499 0.29523,0.292761 0.29337,0.219414 z m -0.57306,-0.458192 c -4.9e-4,-0.01939 -0.076,-0.0912 -0.1678,-0.159508 -0.15127,-0.112552 -0.15449,-0.109159 -0.0344,0.03618 0.12611,0.152682 0.20416,0.200269 0.20221,0.123304 z m -1.32964,-0.773127 c -0.0784,-0.04793 -0.18465,-0.08605 -0.23609,-0.08474 -0.0514,0.0013 -0.0293,0.04156 0.0491,0.08949 0.0784,0.04793 0.18465,0.08605 0.23608,0.08474 0.0514,-0.0013 0.0294,-0.04156 -0.049,-0.08949 z m -2.30059,-0.31597 c -0.2582,-0.103278 -0.33008,-0.101456 -0.3273,0.0083 0.001,0.05138 0.11802,0.08764 0.25937,0.08045 0.22773,-0.01178 0.23547,-0.02167 0.0679,-0.08875 z m -0.65429,-0.688177 c -0.14753,-0.1233 -0.31419,-0.223018 -0.37036,-0.221594 -0.0562,0.0014 0.0434,0.100572 0.22135,0.220321 0.42056,0.283071 0.48686,0.283631 0.14901,0.0012 z"
                   id="use1259" />
                <path
                   id="rect1261"
                   style="fill:#00ccff;fill-opacity:1;stroke:none;stroke-width:0.2;stroke-linejoin:round;stroke-miterlimit:4;stroke-dasharray:none;stroke-opacity:1"
                   d="m 118.28596,58.154766 h 11.81766 v 4.336135 h -11.81766 z" />
              </g>
              <path
                 transform="matrix(2.6298474,0,0,2.2877861,-136.2989,207.52369)"
                 style="fill:#0088aa;fill-opacity:1;stroke:none;stroke-width:0.12329333;stroke-linejoin:round;stroke-miterlimit:4;stroke-dasharray:none;stroke-opacity:1"
                 d="m 117.88382,42.6681 c -0.0409,3.623196 0.75946,7.257814 0.27397,10.871131 -0.27182,1.10233 -0.43176,2.395564 -1.18412,3.269781 -1.10548,-0.441571 -1.98072,-1.425998 -2.86997,-2.215959 -0.23495,-0.248343 -0.70127,-1.019596 -0.6416,-0.256765 -0.16634,0.672928 0.15983,1.651524 -0.29595,2.12644 -2.38765,-1.529842 -5.052,-2.780326 -7.04003,-4.840957 -0.25641,-0.585647 -0.38424,-0.179377 -0.32526,0.248801 -0.002,3.209311 0.75544,6.345979 1.4584,9.459241 -0.25614,0.581808 -0.85194,-0.330476 -1.12709,-0.4855 -0.97191,-0.785977 -2.00613,-1.478788 -3.08406,-2.109875 0.0763,1.191218 0.37442,2.383716 0.43357,3.576243 -0.49452,0.168135 -0.84014,-0.653412 -1.24373,-0.873143 -1.86258,-1.889271 -3.746694,-3.757753 -6.091294,-5.031195 0.74921,4.729541 1.549477,9.561089 0.834329,14.355947 -0.553471,4.991182 -3.514778,9.253916 -4.782661,14.025912 -0.826307,4.003387 0.356356,8.084981 2.087896,11.698454 0.789749,1.725612 1.649571,3.417906 2.474634,5.126714 1.2299,-0.0152 2.515288,-0.26372 3.712276,-0.14081 0.54919,0.71691 0.65928,2.13809 1.50364,2.38148 13.99801,0.009 27.99752,0.18439 41.99472,0.0495 1.01193,0.062 1.24682,-0.24582 0.31554,-0.94696 -2.4385,-2.56953 -4.66695,-5.471486 -5.90336,-8.798319 0.0601,-1.59688 -0.11721,-3.244276 0.0844,-4.811176 1.92965,-4.413051 5.73102,-8.059404 6.40106,-12.960775 0.50036,-3.900287 -0.36801,-7.862594 -2.01433,-11.408709 -0.83251,-1.782739 -1.57203,-3.736811 -2.73265,-5.292855 -1.12936,2.591581 -2.01482,5.339043 -3.64442,7.684177 -0.62515,-0.308969 -0.471,-1.542166 -0.83761,-2.190969 -0.55894,-1.885617 -1.67174,-3.67569 -1.41881,-5.719392 -0.0168,-3.653518 -1.59353,-7.172119 -3.78936,-10.045404 -1.17691,-1.262176 -2.41018,-2.690048 -3.77089,-3.653017 -0.29099,3.720018 0.16232,7.48575 -0.27907,11.194796 -0.19644,1.222446 -0.81981,1.089842 -0.62702,-0.132789 -0.13502,-4.923513 -2.60242,-9.63268 -6.27635,-12.881668 -0.49827,-0.435301 -0.98507,-1.014458 -1.59475,-1.27236 z"
                 id="path1286" />
              <rect
                 transform="matrix(2.6298474,0,0,2.2877861,-136.2989,207.52369)"
                 style="fill:#1c2422;fill-opacity:1;stroke:none;stroke-width:0.16702817;stroke-linejoin:round;stroke-miterlimit:4;stroke-dasharray:none;stroke-opacity:1"
                 id="rect1302"
                 width="35.038239"
                 height="21.5301"
                 x="100.41981"
                 y="110.85556" />
              <path
                 transform="matrix(2.6298474,0,0,2.2877861,-136.2989,207.52369)"
                 style="fill:#00aad4;fill-opacity:1;stroke:none;stroke-width:0.01541167;stroke-linejoin:round;stroke-miterlimit:4;stroke-dasharray:none;stroke-opacity:1"
                 d="m 105.6724,50.635947 c -0.091,0.148066 -0.0706,0.344699 -0.0914,0.514347 1e-5,0.204005 -0.0304,0.420513 0.0136,0.617567 0.0677,-0.08785 0.0525,-0.228687 0.13013,-0.319683 0.0772,-0.15295 0.26434,-0.140218 0.40916,-0.134318 -0.15029,-0.224639 -0.25803,-0.488794 -0.45328,-0.677672 -0.003,-7.94e-4 -0.006,-0.0011 -0.008,-2.41e-4 z"
                 id="path1316" />
              <path
                 transform="matrix(2.6298474,0,0,2.2877861,-136.2989,207.52369)"
                 style="fill:#00aad4;fill-opacity:1;stroke:none;stroke-width:0.01541167;stroke-linejoin:round;stroke-miterlimit:4;stroke-dasharray:none;stroke-opacity:1"
                 d="m 105.61163,51.731465 c -0.0451,0.01937 0.0301,0.100534 0.0203,0.02294 -10e-4,-0.01042 -0.008,-0.0245 -0.0203,-0.02294 z"
                 id="path1318" />
              <path
                 transform="matrix(2.6298474,0,0,2.2877861,-136.2989,207.52369)"
                 style="fill:#00aad4;fill-opacity:1;stroke:none;stroke-width:0.01541167;stroke-linejoin:round;stroke-miterlimit:4;stroke-dasharray:none;stroke-opacity:1"
                 d="m 113.40201,53.337605 c -0.0956,0.118258 -0.0794,0.298998 -0.10931,0.444198 -0.006,0.133398 -0.0472,0.295442 -0.0177,0.415137 0.11476,-0.06316 0.21396,-0.25627 0.3646,-0.170352 0.0958,0.03472 0.18888,0.102211 0.28456,0.124121 -0.1431,-0.2668 -0.28718,-0.538443 -0.46766,-0.782124 -0.0148,-0.01381 -0.0321,-0.03327 -0.0545,-0.03098 z"
                 id="path1320" />
              <path
                 transform="matrix(2.6298474,0,0,2.2877861,-136.2989,207.52369)"
                 style="fill:#00aad4;fill-opacity:1;stroke:none;stroke-width:0.01541167;stroke-linejoin:round;stroke-miterlimit:4;stroke-dasharray:none;stroke-opacity:1"
                 d="m 126.38584,45.350506 c -0.0799,0.05651 -0.0375,0.195615 -0.051,0.282969 0.009,0.676066 0.01,1.355011 0.0499,2.028841 0.0609,0.04202 0.0416,-0.09438 0.0528,-0.124693 0.0461,-0.488034 -0.0341,-1.005332 0.17525,-1.464405 0.0436,-0.08707 0.0209,-0.269232 0.0682,-0.305146 0.0777,0.06575 0.17253,0.144713 0.27516,0.07566 0.20089,-0.0049 0.10125,-0.07606 -0.0128,-0.156435 -0.17461,-0.123851 -0.34671,-0.283101 -0.5575,-0.336788 z"
                 id="path1322" />
              <path
                 transform="matrix(2.6298474,0,0,2.2877861,-136.2989,207.52369)"
                 style="fill:#00aad4;fill-opacity:1;stroke:none;stroke-width:0.01541167;stroke-linejoin:round;stroke-miterlimit:4;stroke-dasharray:none;stroke-opacity:1"
                 d="m 126.68614,45.809005 c -0.0528,0.03526 -0.04,0.153345 -0.012,0.1915 0.094,-0.05377 0.20382,-0.135972 0.0445,-0.183972 -0.0101,-0.0047 -0.0212,-0.0091 -0.0325,-0.0075 z"
                 id="path1324" />
              <path
                 transform="matrix(2.6298474,0,0,2.2877861,-136.2989,207.52369)"
                 style="fill:#00aad4;fill-opacity:1;stroke:none;stroke-width:0.01541167;stroke-linejoin:round;stroke-miterlimit:4;stroke-dasharray:none;stroke-opacity:1"
                 d="m 117.58859,42.521385 c 0.0231,0.367713 0.0238,0.741585 0.073,1.104993 0.0559,0.03192 0.0249,-0.120123 0.041,-0.149728 0.003,-0.19922 0.003,-0.406159 0.11779,-0.579157 0.0648,-0.05678 0.0265,-0.277749 0.12562,-0.209224 0.0899,0.062 0.18617,-0.05805 0.28039,0.01048 0.1161,0.03778 0.21697,0.157493 0.33128,0.170516 -0.14354,-0.178975 -0.35633,-0.297995 -0.53609,-0.44101 -0.13946,-0.08383 -0.27381,-0.22049 -0.4463,-0.217789 0.004,0.10364 0.009,0.20728 0.0133,0.310922 z"
                 id="path1326" />
              <path
                 transform="matrix(2.6298474,0,0,2.2877861,-136.2989,207.52369)"
                 style="fill:#00aad4;fill-opacity:1;stroke:none;stroke-width:0.01541167;stroke-linejoin:round;stroke-miterlimit:4;stroke-dasharray:none;stroke-opacity:1"
                 d="m 117.89788,42.682699 c -0.0369,0.0463 0.003,0.143484 0.0606,0.07072 0.0737,-0.03304 -0.0309,-0.06735 -0.0606,-0.07072 z"
                 id="path1328" />
              <path
                 transform="matrix(2.6298474,0,0,2.2877861,-136.2989,207.52369)"
                 style="fill:#00aad4;fill-opacity:1;stroke:none;stroke-width:0.01541167;stroke-linejoin:round;stroke-miterlimit:4;stroke-dasharray:none;stroke-opacity:1"
                 d="m 102.83874,58.541692 c -0.0559,0.02569 0.0262,0.102304 0.0221,0.02429 -10e-4,-0.01101 -0.009,-0.02593 -0.0221,-0.02429 z"
                 id="path1330" />
              <path
                 transform="matrix(2.6298474,0,0,2.2877861,-136.2989,207.52369)"
                 style="fill:#00aad4;fill-opacity:1;stroke:none;stroke-width:0.01541167;stroke-linejoin:round;stroke-miterlimit:4;stroke-dasharray:none;stroke-opacity:1"
                 d="m 95.867989,56.224984 c 0.05284,0.408252 0.111029,0.818629 0.198268,1.220354 0.0606,0.07691 0.01786,-0.190662 0.03405,-0.117711 -0.0011,-0.239503 -0.03359,-0.485021 0.05563,-0.713949 0.03223,-0.07937 -0.06428,-0.284078 0.07112,-0.169479 0.115911,0.0458 0.265853,0.04401 0.379534,0.01887 -0.202009,-0.13625 -0.433356,-0.235426 -0.662144,-0.320479 -0.09167,-0.03356 -0.07848,0.008 -0.07646,0.08239 z"
                 id="path1332" />
              <path
                 transform="matrix(2.6298474,0,0,2.2877861,-136.2989,207.52369)"
                 style="fill:#00aad4;fill-opacity:1;stroke:none;stroke-width:0.01541167;stroke-linejoin:round;stroke-miterlimit:4;stroke-dasharray:none;stroke-opacity:1"
                 d="m 96.159917,56.430859 c 0.01397,0.03363 -0.0035,0.11352 0.03476,0.130016 0.118886,-0.04167 0.09432,-0.09939 -0.01797,-0.126592 -0.0054,-0.0016 -0.01101,-0.0044 -0.0168,-0.0034 z"
                 id="path1334" />
              <path
                 transform="matrix(2.6298474,0,0,2.2877861,-136.2989,207.52369)"
                 style="fill:#00aad4;fill-opacity:1;stroke:none;stroke-width:0.01541167;stroke-linejoin:round;stroke-miterlimit:4;stroke-dasharray:none;stroke-opacity:1"
                 d="m 140.02713,59.092295 c -0.17154,0.31896 -0.24869,0.683583 -0.36345,1.026832 -2.2e-4,0.05015 -0.0723,0.142385 -0.0268,0.175564 0.13144,-0.131574 0.22669,-0.300654 0.36731,-0.427241 0.0584,-0.04205 0.0736,-0.143933 0.1295,-0.174535 0.066,0.105831 0.20494,0.128458 0.29001,0.219654 0.0773,0.05163 0.14737,0.140584 0.23057,0.169797 -0.17024,-0.334579 -0.35856,-0.665774 -0.58808,-0.96383 -0.0112,-0.0094 -0.0228,-0.02643 -0.0391,-0.02625 z"
                 id="path1336" />
              <path
                 transform="matrix(2.6298474,0,0,2.2877861,-136.2989,207.52369)"
                 style="fill:#00aad4;fill-opacity:1;stroke:none;stroke-width:0.01541167;stroke-linejoin:round;stroke-miterlimit:4;stroke-dasharray:none;stroke-opacity:1"
                 d="m 140.12349,59.729869 c -0.0645,0.02204 -0.0219,0.113335 0.0307,0.03994 0.0236,-0.01892 -0.01,-0.04632 -0.0307,-0.03994 z"
                 id="path1338" />
              <rect
                 transform="matrix(2.6298474,0,0,2.2877861,-136.2989,207.52369)"
                 style="fill:#00aad4;fill-opacity:1;stroke:none;stroke-width:0.2;stroke-linejoin:round;stroke-miterlimit:4;stroke-dasharray:none;stroke-opacity:1"
                 id="rect1340"
                 width="0.50078887"
                 height="0.41413838"
                 x="139.92271"
                 y="59.659206" />
              <rect
                 transform="matrix(2.6298474,0,0,2.2877861,-136.2989,207.52369)"
                 style="fill:#00aad4;fill-opacity:1;stroke:none;stroke-width:0.2;stroke-linejoin:round;stroke-miterlimit:4;stroke-dasharray:none;stroke-opacity:1"
                 id="rect1342"
                 width="0.22427185"
                 height="0.42815536"
                 x="96.044418"
                 y="56.330807" />
              <rect
                 style="fill:#00aad4;fill-opacity:1;stroke:none;stroke-width:0.30853251;stroke-linejoin:round;stroke-miterlimit:4;stroke-dasharray:none;stroke-opacity:1"
                 id="rect1344"
                 width="0.41819042"
                 height="0.83829141"
                 x="126.84193"
                 y="-4.8208046"
                 transform="matrix(2.3345526,1.0532856,-0.38312051,2.2633789,-136.2989,207.52369)" />
              <rect
                 style="fill:#00aad4;fill-opacity:1;stroke:none;stroke-width:0.2;stroke-linejoin:round;stroke-miterlimit:4;stroke-dasharray:none;stroke-opacity:1"
                 id="rect1348"
                 width="1.0199845"
                 height="0.57666963"
                 x="117.53844"
                 y="-44.77219"
                 transform="matrix(1.8210352,1.6505619,-1.8973477,1.5841752,-136.2989,207.52369)" />
              <rect
                 transform="matrix(2.6298474,0,0,2.2877861,-136.2989,207.52369)"
                 clip-path="url(#clipPath1762)"
                 y="97.846588"
                 x="85.141747"
                 height="15.495147"
                 width="64.916504"
                 id="rect1298"
                 style="fill:#000000;fill-opacity:1;stroke:#000000;stroke-width:0.2;stroke-linejoin:round;stroke-miterlimit:4;stroke-dasharray:none;stroke-opacity:1" />
              <path
                 clip-path="url(#clipPath1754)"
                 transform="matrix(0.69581379,0,0,0.60531009,-136.2989,207.52369)"
                 id="path1367"
                 d="m 429.45779,372.40954 c -34.92117,0.0407 -69.80631,0.0979 -104.6994,0.75252 0,17.46936 0,34.93873 0,52.40809 79.78427,0 159.56855,0 239.35281,0 0,-17.46936 0,-34.93873 0,-52.40809 -44.86806,-0.80931 -89.75466,-0.7429 -134.65341,-0.75252 z"
                 style="fill:#ffffff;fill-opacity:1;stroke:#000000;stroke-width:0.46599054;stroke-linejoin:round;stroke-miterlimit:4;stroke-dasharray:none;stroke-opacity:1" />
              <path
                 transform="matrix(2.6298474,0,0,2.2877861,-136.2989,207.52369)"
                 id="path1304"
                 d="m 118.09683,42.789578 c -0.3959,0.649269 -0.0571,1.604227 -0.12966,2.349756 0.0198,3.039653 0.58614,6.139246 -0.0533,9.145101 -0.26131,0.788106 -0.37533,1.799685 -1.01549,2.363806 -1.32962,-0.536842 -2.19484,-1.782035 -3.33286,-2.602384 -0.44093,0.276157 -0.10801,1.098783 -0.23988,1.561621 0.0271,0.380641 -0.0644,0.871919 -0.49059,0.509072 -2.44999,-1.287158 -4.81017,-2.83663 -6.87438,-4.681355 -0.48402,0.210032 -0.13162,1.032542 -0.19369,1.462545 0.18022,2.859591 0.94063,5.659821 1.31728,8.475181 -1.43731,-0.696097 -2.5425,-2.009423 -4.00982,-2.642203 -0.0977,1.113081 0.36923,2.312363 0.26823,3.459012 -2.32723,-1.805602 -4.224754,-4.226841 -6.859401,-5.615398 -0.572132,0.177607 -0.0799,1.086938 -0.138258,1.5132 0.961964,5.995299 1.513642,12.393901 -0.904724,18.12817 -1.495224,4.094287 -4.054705,8.163338 -3.473357,12.698696 0.320516,3.179688 1.536456,6.242351 2.96555,9.042233 15.07028,0.0026 30.14057,0.0051 45.21085,0.0076 -0.0145,-0.837549 -0.83142,-1.70267 -1.14703,-2.55048 -0.89225,-1.30498 -0.32287,-2.967736 -0.48675,-4.451006 -0.17274,-1.133962 0.16057,-2.156343 0.78056,-3.097607 1.85465,-3.46842 4.50843,-6.62565 5.44251,-10.513848 0.73932,-4.151135 -0.0369,-8.432832 -1.77295,-12.241215 -0.83334,-1.715437 -1.43466,-3.619725 -2.63476,-5.116917 -0.53118,-0.140124 -0.57362,0.811006 -0.84002,1.112155 -0.95123,2.068438 -1.71485,4.285152 -3.04555,6.137177 -0.66006,-0.898824 -0.62412,-2.137106 -1.12432,-3.140078 -0.79416,-1.769583 -1.07718,-3.674837 -1.13114,-5.602383 -0.32952,-4.497623 -2.78343,-8.561697 -6.06171,-11.554459 -0.43954,-0.249976 -0.83479,-1.120429 -1.3622,-0.993614 -0.43588,3.646675 -0.0619,7.37195 -0.45046,11.024364 -0.014,0.310754 -0.44691,0.977509 -0.43165,0.290534 -0.19391,-3.258693 -1.04629,-6.51437 -2.88304,-9.248029 -1.29469,-1.981292 -2.90688,-3.812839 -4.8056,-5.221967 -0.0297,-0.0091 -0.0614,-0.01495 -0.0924,-0.0073 z"
                 style="fill:url(#radialGradient1919);fill-opacity:1;stroke:url(#radialGradient1921);stroke-width:0.12329333;stroke-linejoin:round;stroke-miterlimit:4;stroke-dasharray:none;stroke-opacity:1;filter:url(#filter2121)" />
              <path
                 style="fill:url(#linearGradient1857);fill-opacity:1;stroke:#cfafaf;stroke-width:0.46599054;stroke-linejoin:round;stroke-miterlimit:4;stroke-dasharray:none;stroke-opacity:0"
                 d="m 351.84801,465.86685 c 0,12.06003 0,24.12006 0,36.18009 62.75197,0 125.50394,0 188.25591,0 0,-24.12006 0,-48.24012 0,-72.36018 -62.75197,0 -125.50394,0 -188.25591,0 0,12.06003 0,24.12006 0,36.18009 z"
                 id="path1363"
                 transform="matrix(0.48530244,0,0,0.60531008,-42.439432,205.94053)"
                 clip-path="url(#clipPath1758)" />
              <path
                 d="m 108.40234,449.16016 q 0,-5.46875 -1.03515,-7.69532 -1.01563,-2.24609 -3.4375,-2.24609 -2.42188,0 -3.45703,2.24609 -1.03516,2.22657 -1.03516,7.69532 0,5.52734 1.03516,7.79296 1.03515,2.26563 3.45703,2.26563 2.40234,0 3.4375,-2.26563 1.03515,-2.26562 1.03515,-7.79296 z m 7.51954,0.0586 q 0,7.24609 -3.125,11.19141 -3.125,3.92578 -8.86719,3.92578 -5.761721,0 -8.886721,-3.92578 -3.125,-3.94532 -3.125,-11.19141 0,-7.26563 3.125,-11.19141 3.125,-3.94531 8.886721,-3.94531 5.74219,0 8.86719,3.94531 3.125,3.92578 3.125,11.19141 z"
                 style=""
                 id="path4629" />
              <path
                 d="m 122.50391,458.57422 h 6.64062 v -18.84766 l -6.8164,1.40625 v -5.11719 l 6.77734,-1.40625 h 7.14844 v 23.96485 h 6.64062 v 5.19531 h -20.39062 z"
                 style=""
                 id="path4631" />
              <path
                 d="m 164.02734,449.16016 q 0,-5.46875 -1.03515,-7.69532 -1.01563,-2.24609 -3.4375,-2.24609 -2.42188,0 -3.45703,2.24609 -1.03516,2.22657 -1.03516,7.69532 0,5.52734 1.03516,7.79296 1.03515,2.26563 3.45703,2.26563 2.40234,0 3.4375,-2.26563 1.03515,-2.26562 1.03515,-7.79296 z m 7.51953,0.0586 q 0,7.24609 -3.125,11.19141 -3.125,3.92578 -8.86718,3.92578 -5.76172,0 -8.88672,-3.92578 -3.125,-3.94532 -3.125,-11.19141 0,-7.26563 3.125,-11.19141 3.125,-3.94531 8.88672,-3.94531 5.74218,0 8.86718,3.94531 3.125,3.92578 3.125,11.19141 z"
                 style=""
                 id="path4633" />
              <path
                 d="m 178.12891,458.57422 h 6.64062 v -18.84766 l -6.81641,1.40625 v -5.11719 l 6.77735,-1.40625 h 7.14844 v 23.96485 h 6.64062 v 5.19531 h -20.39062 z"
                 style=""
                 id="path4635" />
              <path
                 d="m 219.65234,449.16016 q 0,-5.46875 -1.03515,-7.69532 -1.01563,-2.24609 -3.4375,-2.24609 -2.42188,0 -3.45703,2.24609 -1.03516,2.22657 -1.03516,7.69532 0,5.52734 1.03516,7.79296 1.03515,2.26563 3.45703,2.26563 2.40234,0 3.4375,-2.26563 1.03515,-2.26562 1.03515,-7.79296 z m 7.51953,0.0586 q 0,7.24609 -3.125,11.19141 -3.125,3.92578 -8.86718,3.92578 -5.76172,0 -8.88672,-3.92578 -3.125,-3.94532 -3.125,-11.19141 0,-7.26563 3.125,-11.19141 3.125,-3.94531 8.88672,-3.94531 5.74218,0 8.86718,3.94531 3.125,3.92578 3.125,11.19141 z"
                 style=""
                 id="path4637" />
              <path
                 d="m 233.75391,458.57422 h 6.64062 v -18.84766 l -6.81641,1.40625 v -5.11719 l 6.77735,-1.40625 h 7.14844 v 23.96485 h 6.64062 v 5.19531 h -20.39062 z"
                 style=""
                 id="path4639" />
            </g>
          </g>
        </g>
      </g>
    </g>
  </g>
</svg>
