<?xml version="1.0" encoding="UTF-8"?>
<svg xmlns="http://www.w3.org/2000/svg" xmlns:xlink="http://www.w3.org/1999/xlink" width="144pt" height="144pt" viewBox="0 0 144 144" version="1.1">
<g id="surface278171">
<path style=" stroke:none;fill-rule:nonzero;fill:rgb(45.098039%,0%,3.921569%);fill-opacity:1;" d="M 130.804688 0 L 13.195312 0 C 6 0 0 6 0 13.195312 L 0 130.804688 C 0 138 6 144 13.195312 144 L 130.804688 144 C 138 144 144 138 144 130.804688 L 144 13.195312 C 144 6 138 0 130.804688 0 Z M 42 120 L 18 120 L 18 54 L 42 54 Z M 30 46.195312 C 22.804688 46.195312 18 41.390625 18 35.390625 C 18 28.804688 22.804688 24 30 24 C 37.195312 24 42 28.804688 42 34.804688 C 42 41.390625 37.195312 46.195312 30 46.195312 Z M 126 120 L 102 120 L 102 84 C 102 74.390625 95.390625 72 93.609375 72 C 91.804688 72 84 73.195312 84 84 C 84 85.195312 84 120 84 120 L 60 120 L 60 54 L 84 54 L 84 63.609375 C 87.609375 58.195312 93.609375 54 105 54 C 116.390625 54 126 63 126 84 Z M 126 120 "/>
</g>
</svg>
